{"title":"The Batman vs Dracula The Animated Movie 2005 DVDRip Xvid fasamo","uid":5858079,"size":736903840,"categoryP":"video","categoryS":"movies","magnet":"?xt=urn:btih:3614539d4a36ae58ad3099f2d8b6f7fba3ffe076&amp;dn=The+Batman+vs+Dracula+The+Animated+Movie+2005+DVDRip+Xvid+fasamo&amp;tr=udp%3A%2F%2Ftracker.openbittorrent.com%3A80&amp;tr=udp%3A%2F%2Fopen.demonii.com%3A1337&amp;tr=udp%3A%2F%2Ftracker.coppersurfer.tk%3A6969&amp;tr=udp%3A%2F%2Fexodus.desync.com%3A6969","seeders":3,"leechers":0,"uploader":"fasamoo","files":-1,"time":1285874114,"description":" The Batman vs Dracula The Animated Movie 2005 DVDRip Xvid fasamoo LKRG\n\nRIPPER Ã‚Â  Ã‚Â  Ã‚Â  Ã‚Â  Ã‚Â  Ã‚Â  Ã‚Â  Ã‚Â  Ã‚Â  Ã‚Â  Ã‚Â  Ã‚Â  Ã‚Â  : fasamoo\nFormat                           : AVI\nFormat/Info                      : Audio Video Interleave\nFile size                        : 703 MiB\nDuration                         : 1h 23mn\nOverall bit rate                 : 1 181 Kbps\nWriting application              : VirtualDubMod 1.5.4.1 (build 2178/release)\nWriting library                  : VirtualDub build 32817/release\nLanguage Ã‚Â  Ã‚Â  Ã‚Â  Ã‚Â  Ã‚Â  Ã‚Â  Ã‚Â  Ã‚Â  Ã‚Â  Ã‚Â  Ã‚Â  Ã‚Â  : English\nSubtitles                        : None\nGenre Ã‚Â  Ã‚Â  Ã‚Â  Ã‚Â  Ã‚Â  Ã‚Â  Ã‚Â  Ã‚Â  Ã‚Â  Ã‚Â  Ã‚Â  Ã‚Â  Ã‚Â  Ã‚Â : Animation\n\nVideo\nID                               : 0\nFormat                           : MPEG-4 Visual\nFormat profile                   : Advanced Simple@L5\nFormat settings, BVOP            : Yes\nFormat settings, QPel            : No\nFormat settings, GMC             : No warppoints\nFormat settings, Matrix          : Custom\nCodec ID                         : XVID\nCodec ID/Hint                    : XviD\nDuration                         : 1h 23mn\nBit rate                         : 1 042 Kbps\nWidth                            : 640 pixels\nHeight                           : 480 pixels\nDisplay aspect ratio             : 4:3\nFrame rate                       : 29.970 fps\nColor space                      : YUV\nChroma subsampling               : 4:2:0\nBit depth                        : 8 bits\nScan type                        : Progressive\nBits/(Pixel*Frame)               : 0.113\nStream size                      : 620 MiB (88%)\nWriting library                  : XviD 1.2.1 (UTC 2008-12-04)\n\nAudio\nID                               : 1\nFormat                           : MPEG Audio\nFormat version                   : Version 1\nFormat profile                   : Layer 3\nMode                             : Joint stereo\nMode extension                   : MS Stereo\nCodec ID                         : 55\nCodec ID/Hint                    : MP3\nDuration                         : 1h 23mn\nBit rate mode                    : Constant\nBit rate                         : 128 Kbps\nChannel(s)                       : 2 channels\nSampling rate                    : 48.0 KHz\nVideo delay                      : 16ms\nStream size                      : 76.1 MiB (11%)\nAlignment                        : Split accross interleaves\nInterleave, duration             : 33 ms (1.00 video frame)\nInterleave, preload duration     : 500 ms\n\n                                 PLOT\n\n\nGotham City is terrorized not only by recent escapees Joker and Penguin, but by the original creature of the night, Dracula! Can Batman stop the ruthless vampire before he turns everyone in the city, including The Caped Crusader, Joker and Penguin, into his mindless minions?  \n\n  \n\n\n\n\n\n\n\n                                 IMBD\n                     \n                   &lt;a href=&quot; http://www.imdb.com/title/tt0472219/&quot; rel=&quot;nofollow&quot; target=&quot;_NEW&quot;&gt; http://www.imdb.com/title/tt0472219/&lt;/a&gt;\n &lt;a href=&quot;\nhttp://leetleech.org/images/85316104549430832874.png&quot; rel=&quot;nofollow&quot; target=&quot;_NEW&quot;&gt;\nhttp://leetleech.org/images/85316104549430832874.png&lt;/a&gt; &lt;a href=&quot;\nhttp://leetleech.org/images/18422930903826969085.png&quot; rel=&quot;nofollow&quot; target=&quot;_NEW&quot;&gt;\nhttp://leetleech.org/images/18422930903826969085.png&lt;/a&gt; &lt;a href=&quot;\nhttp://leetleech.org/images/21207653017726326328.png&quot; rel=&quot;nofollow&quot; target=&quot;_NEW&quot;&gt;\nhttp://leetleech.org/images/21207653017726326328.png&lt;/a&gt; &lt;a href=&quot;\nhttp://leetleech.org/images/68783657100218195065.png&quot; rel=&quot;nofollow&quot; target=&quot;_NEW&quot;&gt;\nhttp://leetleech.org/images/68783657100218195065.png&lt;/a&gt; &lt;a href=&quot;\nhttp://leetleech.org/images/19153364551829288368.png&quot; rel=&quot;nofollow&quot; target=&quot;_NEW&quot;&gt;\nhttp://leetleech.org/images/19153364551829288368.png&lt;/a&gt; &lt;a href=&quot;\nhttp://leetleech.org/images/28768156442708932679.png&quot; rel=&quot;nofollow&quot; target=&quot;_NEW&quot;&gt;\nhttp://leetleech.org/images/28768156442708932679.png&lt;/a&gt; &lt;a href=&quot;\nhttp://leetleech.org/images/94818908557775739611.png&quot; rel=&quot;nofollow&quot; target=&quot;_NEW&quot;&gt;\nhttp://leetleech.org/images/94818908557775739611.png&lt;/a&gt; &lt;a href=&quot;\nhttp://leetleech.org/images/42847562029595066081.png&quot; rel=&quot;nofollow&quot; target=&quot;_NEW&quot;&gt;\nhttp://leetleech.org/images/42847562029595066081.png&lt;/a&gt;\n\n","torrent":{"xt":"urn:btih:3614539d4a36ae58ad3099f2d8b6f7fba3ffe076","amp;dn":"The+Batman+vs+Dracula+The+Animated+Movie+2005+DVDRip+Xvid+fasamo","amp;tr":["udp%3A%2F%2Ftracker.openbittorrent.com%3A80","udp%3A%2F%2Fopen.demonii.com%3A1337","udp%3A%2F%2Ftracker.coppersurfer.tk%3A6969","udp%3A%2F%2Fexodus.desync.com%3A6969"],"infoHash":"3614539d4a36ae58ad3099f2d8b6f7fba3ffe076","infoHashBuffer":{"type":"Buffer","data":[54,20,83,157,74,54,174,88,173,48,153,242,216,182,247,251,163,255,224,118]},"announce":[],"urlList":[]}}